<?xml version="1.0" ?>
<!DOCTYPE svg  PUBLIC '-//W3C//DTD SVG 1.1//EN'  'http://www.w3.org/Graphics/SVG/1.1/DTD/svg11.dtd'>
<!-- Uploaded to: SVG Repo, www.svgrepo.com, Generator: SVG Repo Mixer Tools -->
<svg fill="#000000" width="800px" height="800px" viewBox="0 0 512 512" version="1.1" xml:space="preserve" xmlns="http://www.w3.org/2000/svg" xmlns:xlink="http://www.w3.org/1999/xlink">
<g id="_x37_47_x2C__Analysis_x2C__analytical_x2C__management_x2C__online_x2C__platform">
<g>
<path d="M44.261,245.238c0,1.947-1.574,3.521-3.52,3.521    c-1.932,0-3.506-1.573-3.506-3.521v-95.164c0-6.097,2.49-11.621,6.482-15.629c4.036-4.006,9.56-6.496,15.626-6.496h32    c1.946,0,3.52,1.574,3.52,3.521c0,1.918-1.574,3.521-3.52,3.521h-32c-4.134,0-7.912,1.688-10.646,4.407    c-2.734,2.748-4.436,6.526-4.436,10.677V245.238z M198.314,284.191h19.132c1.946,0,3.52,1.574,3.52,3.521v45.334    c0,1.947-1.574,3.521-3.52,3.521h-19.132c-1.932,0-3.522-1.574-3.522-3.521v-45.334    C194.792,285.766,196.382,284.191,198.314,284.191z M230.398,254.883h19.118c1.932,0,3.52,1.574,3.52,3.521v74.644    c0,1.947-1.588,3.521-3.52,3.521h-19.118c-1.946,0-3.521-1.574-3.521-3.521v-74.644    C226.878,256.457,228.452,254.883,230.398,254.883z M262.468,292.205H281.6c1.933,0,3.522,1.574,3.522,3.52v37.322    c0,1.947-1.59,3.521-3.522,3.521h-19.132c-1.932,0-3.52-1.574-3.52-3.521v-37.322    C258.948,293.779,260.536,292.205,262.468,292.205z M294.552,268.766h19.118c1.947,0,3.521,1.573,3.521,3.52v60.762    c0,1.947-1.574,3.521-3.521,3.521h-19.118c-1.932,0-3.521-1.574-3.521-3.521v-60.762    C291.031,270.339,292.62,268.766,294.552,268.766z M320.468,340.347c1.946,0,3.521,1.573,3.521,3.52    c0,1.918-1.574,3.521-3.521,3.521H191.53c-1.946,0-3.52-1.603-3.52-3.521c0-1.946,1.574-3.52,3.52-3.52H320.468z M214.556,64.868    c2.976,0,5.667,1.202,7.612,3.147l0.23,0.259c1.804,1.917,2.92,4.522,2.92,7.355c0,2.976-1.202,5.667-3.15,7.614    c-1.144,1.145-2.532,2.031-4.092,2.576v4.378l5.71,5.724l12.464-12.479V64.727c0-1.948,1.574-3.522,3.521-3.522    c1.946,0,3.52,1.574,3.52,3.522v20.147c0,1.06-0.472,2.004-1.216,2.662l-13.324,13.338l27.032,27.075    c0.674,0.687,1.016,1.574,1.016,2.461l0.014,78.651c0,1.946-1.574,3.521-3.506,3.521c-1.946,0-3.52-1.574-3.52-3.521v-77.192    c-12.508-12.535-25.014-25.043-37.521-37.579c-0.744-0.628-1.216-1.603-1.216-2.66v-5.81c-1.56-0.545-2.948-1.432-4.078-2.576    l-0.23-0.258c-1.818-1.918-2.92-4.494-2.92-7.356c0-2.948,1.202-5.638,3.15-7.584C208.904,66.07,211.594,64.868,214.556,64.868z     M323.088,68.016c1.945-1.945,4.636-3.147,7.598-3.147c2.82,0,5.41,1.116,7.342,2.92l0.258,0.258    c1.946,1.917,3.148,4.636,3.148,7.584c0,2.976-1.202,5.667-3.148,7.614c-1.146,1.145-2.533,2.031-4.08,2.546v5.84    c0,1.058-0.471,2.032-1.215,2.66c-12.508,12.536-25.015,25.044-37.522,37.579v77.192c0,1.946-1.574,3.521-3.521,3.521    c-1.945,0-3.52-1.574-3.52-3.521V130.41c0.028-0.887,0.356-1.774,1.03-2.461l27.046-27.075l-13.336-13.338    c-0.746-0.658-1.204-1.603-1.204-2.662V64.727c0-1.948,1.575-3.522,3.521-3.522c1.933,0,3.507,1.574,3.507,3.522v18.717    l12.463,12.479l5.711-5.724V85.82c-1.561-0.545-2.934-1.432-4.078-2.576c-1.946-1.947-3.148-4.639-3.148-7.614    c0-2.833,1.116-5.438,2.918-7.355L323.088,68.016z M68.103,461.012c-1.948,0-3.521-1.602-3.521-3.52    c0-1.946,1.574-3.521,3.521-3.521h287.455c1.932,0,3.521,1.574,3.521,3.521c0,1.918-1.589,3.52-3.521,3.52H68.103z M236.422,478.5    c-1.932,0-3.52-1.603-3.52-3.521c0-1.946,1.588-3.52,3.52-3.52h198.917c1.946,0,3.521,1.573,3.521,3.52    c0,1.918-1.574,3.521-3.521,3.521H236.422z M455.703,478.5c-1.933,0-3.521-1.603-3.521-3.521c0-1.946,1.588-3.52,3.521-3.52    h24.871c1.933,0,3.507,1.573,3.507,3.52c0,1.918-1.574,3.521-3.507,3.521H455.703z M56.783,477.956    c-1.946,0-3.522-1.574-3.522-3.521s1.576-3.52,3.522-3.52h94.248c1.948,0,3.522,1.573,3.522,3.52s-1.574,3.521-3.522,3.521H56.783    z M194.809,396.614v11.536h122.383v-11.536v-7.04h143.447h21.838h0.086c1.904,0.059,3.437,1.632,3.437,3.52v22.782    c0,1.776-1.347,3.264-3.092,3.492l-119.006,22.868l-0.659,0.058H148.757l-0.888-0.114L28.863,419.312    c-1.69-0.315-2.862-1.804-2.862-3.436v-22.782c0-1.918,1.574-3.52,3.52-3.52h7.054h14.77h143.463V396.614z M73.469,141.458    h153.867v-4.064L215.1,125.145c-5.124,4.693-15.312,13.939-15.355,13.967c-1.416,1.316-3.648,1.202-4.936-0.199    c-1.318-1.432-1.218-3.664,0.214-4.952c0.042-0.028,10.46-9.302,15.212-13.683l-20.106-20.119    c-0.758-0.658-1.216-1.603-1.216-2.662V54.422c-1.546-0.543-2.948-1.432-4.08-2.576c-1.96-1.945-3.162-4.636-3.162-7.584    c0-2.978,1.202-5.668,3.148-7.613l0.258-0.23c1.946-1.83,4.522-2.918,7.356-2.918c2.976,0,5.652,1.202,7.598,3.148l0.23,0.229    c1.816,1.947,2.918,4.521,2.918,7.385c0,2.948-1.202,5.639-3.148,7.584c-1.13,1.145-2.532,2.033-4.078,2.576v41.614    c12.464,12.508,24.93,24.958,37.394,37.466c0.672,0.658,1.016,1.574,1.016,2.462l0.014,72.925c0,1.918-1.588,3.521-3.52,3.521    c-1.932,0-3.521-1.603-3.521-3.521v-38.123H82.283v196.57h347.418v-196.57H317.906v38.123c0,1.918-1.574,3.521-3.521,3.521    c-1.932,0-3.506-1.603-3.506-3.521v-72.925c0.015-0.888,0.358-1.804,1.017-2.462c12.479-12.508,24.93-24.958,37.407-37.466V54.422    c-1.546-0.543-2.948-1.432-4.093-2.576c-1.932-1.945-3.147-4.636-3.147-7.584c0-2.863,1.116-5.438,2.918-7.385l0.229-0.229    c1.947-1.946,4.637-3.148,7.613-3.148c2.947,0,5.653,1.202,7.6,3.148c1.932,1.945,3.147,4.636,3.147,7.613    c0,2.948-1.216,5.639-3.147,7.584c-1.131,1.145-2.534,2.033-4.078,2.576v43.074c0,1.06-0.488,2.004-1.232,2.662l-20.092,20.119    c4.639,4.438,14.854,13.969,14.884,13.996c1.431,1.318,1.517,3.521,0.229,4.952c-1.316,1.433-3.521,1.519-4.952,0.229    c-0.027-0.058-10.074-9.445-15.096-14.254l-12.18,12.192v4.064h120.608c6.097,0,11.62,2.489,15.628,6.497    c4.007,4.037,6.496,9.561,6.496,15.627v218.98H51.345v-218.98c0-6.066,2.49-11.59,6.496-15.598    C61.863,143.947,67.387,141.458,73.469,141.458z" style="fill-rule:evenodd;clip-rule:evenodd;"/>
</g>
</g>
<g id="Layer_1"/>
</svg>